<svg width="146" height="56" viewBox="0 0 146 56" fill="none" xmlns="http://www.w3.org/2000/svg">
  <path d="M 3 12 C 20 12, 38 1, 58 1 C 78 1, 92 12, 110 12 C 124 12, 136 3, 143 1" stroke="#1E232E" stroke-width="3.8" stroke-linecap="round" stroke-linejoin="round"/>
  <path d="M 3 33 C 20 33, 38 22, 58 22 C 78 22, 92 33, 110 33 C 124 33, 136 24, 143 22" stroke="#1E232E" stroke-width="3.8" stroke-linecap="round" stroke-linejoin="round"/>
  <path d="M 3 53 C 20 53, 38 42, 58 42 C 78 42, 92 53, 110 53 C 124 53, 136 44, 143 42" stroke="#1E232E" stroke-width="3.8" stroke-linecap="round" stroke-linejoin="round"/>
</svg>
